<?xml version="1.0" encoding="utf-8"?>
<!-- Generator: Adobe Illustrator 16.0.0, SVG Export Plug-In . SVG Version: 6.00 Build 0)  -->
<!DOCTYPE svg PUBLIC "-//W3C//DTD SVG 1.1 Tiny//EN" "http://www.w3.org/Graphics/SVG/1.1/DTD/svg11-tiny.dtd">
<svg version="1.1" baseProfile="tiny" id="Layer_1" xmlns="http://www.w3.org/2000/svg" xmlns:xlink="http://www.w3.org/1999/xlink"
	 x="0px" y="0px" width="24px" height="24px" viewBox="0 0 24 24" xml:space="preserve">
<g>
	<path d="M11.991,6.849c-0.872,0-1.737,0.226-2.502,0.651c-2.477,1.382-3.371,4.529-1.992,7.018
		c0.914,1.629,2.643,2.641,4.514,2.641c0.87,0,1.731-0.226,2.49-0.651c1.209-0.676,2.082-1.78,2.456-3.109
		c0.372-1.321,0.207-2.709-0.464-3.903C15.59,7.862,13.865,6.849,11.991,6.849z M16.187,13.181
		c-0.316,1.123-1.054,2.057-2.077,2.629c-0.64,0.358-1.366,0.549-2.099,0.549c-1.582,0-3.044-0.855-3.815-2.23
		c-1.165-2.102-0.41-4.762,1.683-5.929c0.646-0.36,1.376-0.55,2.113-0.55c1.583,0,3.04,0.854,3.803,2.234
		C16.361,10.895,16.501,12.065,16.187,13.181z"/>
	<path d="M11.082,10.361c-0.918,0.513-1.237,1.633-0.727,2.547c0.328,0.602,0.96,0.976,1.649,0.976c0.319,0,0.635-0.083,0.916-0.239
		c0.901-0.51,1.225-1.657,0.722-2.559C13.152,10.21,11.948,9.87,11.082,10.361z M12.528,12.947
		c-0.508,0.282-1.196,0.083-1.473-0.426c-0.293-0.525-0.11-1.167,0.419-1.463c0.16-0.09,0.34-0.138,0.523-0.138
		c0.392,0,0.754,0.213,0.946,0.556C13.233,11.994,13.046,12.654,12.528,12.947z"/>
	<path d="M21.415,12.765c-1.259-0.487-1.259-0.487-1.37-1.554c-0.091-0.96-0.096-1.018,1.047-1.798
		c1.693-1.195,1.981-1.587,1.182-3.024c-0.293-0.525-0.596-1.068-1.287-1.068c-0.407,0-0.899,0.182-1.848,0.59
		c-0.562,0.243-0.889,0.366-1.115,0.366c-0.205,0-0.383-0.103-0.864-0.495c-0.807-0.678-0.822-0.69-0.551-2.198
		c0.343-1.888,0.262-2.374-1.327-2.821c-0.365-0.104-0.624-0.164-0.863-0.164c-0.83,0-1.142,0.688-1.667,2.011
		c-0.481,1.238-0.481,1.238-1.554,1.351c-0.205,0.02-0.376,0.033-0.524,0.033c-0.443,0-0.581-0.084-1.306-1.131
		C8.644,1.819,8.236,1.275,7.585,1.275c-0.362,0-0.709,0.18-1.157,0.432C4.962,2.519,5.087,2.966,5.853,4.726
		C6.414,6.04,6.414,6.04,5.741,6.87C5.266,7.458,5.136,7.546,4.751,7.546c-0.26,0-0.631-0.057-1.106-0.142
		c-0.684-0.127-1.091-0.18-1.404-0.18c-1.063,0-1.26,0.709-1.45,1.393c-0.445,1.56-0.087,1.867,1.778,2.614
		c1.283,0.508,1.283,0.508,1.374,1.501c0.101,1.083,0.101,1.083-1.108,1.917c-1.661,1.166-1.921,1.513-1.166,2.861
		c0.344,0.628,0.642,1.17,1.341,1.17c0.405,0,0.898-0.181,1.788-0.563c0.573-0.251,0.93-0.387,1.17-0.387
		c0.211,0,0.388,0.103,0.865,0.501c0.79,0.646,0.821,0.672,0.566,2.097c-0.363,1.986-0.294,2.455,1.267,2.896
		c0.395,0.112,0.673,0.177,0.922,0.177c0.85,0,1.143-0.74,1.626-1.965c0.512-1.285,0.512-1.285,1.549-1.377
		c0.241-0.024,0.435-0.041,0.599-0.041c0.433,0,0.53,0.061,1.246,1.097c1.061,1.531,1.515,1.991,2.962,1.186
		c1.389-0.771,1.343-1.249,0.52-3.137c-0.525-1.2-0.5-1.231,0.157-2.016c0.484-0.599,0.605-0.681,0.996-0.681
		c0.269,0,0.647,0.059,1.135,0.146c0.581,0.104,1.01,0.168,1.354,0.168c0.998,0,1.246-0.599,1.486-1.445
		C23.649,13.818,23.262,13.494,21.415,12.765z M22.448,15.119c-0.238,0.835-0.328,0.864-0.717,0.864
		c-0.284,0-0.69-0.062-1.212-0.155c-0.543-0.099-0.947-0.16-1.276-0.16c-0.786,0-1.126,0.372-1.613,0.973
		c-0.875,1.046-0.908,1.392-0.272,2.845c0.709,1.626,0.709,1.626-0.175,2.117c-0.337,0.188-0.595,0.313-0.757,0.313
		c-0.247,0-0.57-0.404-1.158-1.254c-0.685-0.99-0.997-1.441-1.904-1.441c-0.187,0-0.407,0.018-0.675,0.045
		c-1.366,0.121-1.594,0.313-2.217,1.877c-0.501,1.27-0.646,1.461-0.883,1.461c-0.156,0-0.385-0.057-0.704-0.146
		c-1.007-0.285-1.007-0.285-0.697-1.984c0.287-1.604,0.25-1.961-0.844-2.855c-0.495-0.414-0.857-0.685-1.375-0.685
		c-0.386,0-0.789,0.146-1.489,0.453c-0.733,0.314-1.208,0.496-1.47,0.496c-0.18,0-0.274-0.089-0.641-0.758
		C1.9,16.284,1.9,16.284,3.292,15.306c1.392-0.96,1.583-1.193,1.448-2.647c-0.123-1.33-0.315-1.553-1.875-2.17
		C1.271,9.85,1.271,9.85,1.561,8.834c0.219-0.787,0.29-0.81,0.68-0.81c0.257,0,0.633,0.05,1.261,0.167
		c0.535,0.096,0.93,0.154,1.25,0.154c0.785,0,1.124-0.369,1.611-0.972c0.876-1.081,0.9-1.386,0.225-2.965
		C5.93,2.897,5.93,2.897,6.818,2.405c0.309-0.174,0.6-0.329,0.767-0.329c0.224,0,0.541,0.4,1.125,1.241
		c0.709,1.022,1.061,1.475,1.963,1.475c0.169,0,0.364-0.015,0.603-0.037c1.402-0.146,1.63-0.337,2.22-1.854
		c0.507-1.275,0.682-1.503,0.922-1.503c0.146,0,0.355,0.052,0.646,0.134c1.051,0.296,1.051,0.296,0.758,1.91
		c-0.316,1.762-0.232,2.065,0.828,2.956c0.503,0.41,0.87,0.679,1.375,0.679c0.368,0,0.755-0.139,1.432-0.432
		c0.667-0.287,1.243-0.524,1.531-0.524c0.157,0,0.254,0.06,0.588,0.658C22.1,7.722,22.1,7.722,20.636,8.756
		c-1.328,0.906-1.509,1.237-1.387,2.533c0.144,1.384,0.354,1.633,1.875,2.221C22.726,14.143,22.726,14.143,22.448,15.119z"/>
</g>
</svg>
