<?xml version="1.0" encoding="iso-8859-1"?>
<!-- Generator: Adobe Illustrator 18.1.1, SVG Export Plug-In . SVG Version: 6.00 Build 0)  -->
<svg fill="#fff" version="1.1" id="Capa_1" xmlns="http://www.w3.org/2000/svg" xmlns:xlink="http://www.w3.org/1999/xlink" x="0px" y="0px"
	 viewBox="0 0 478.165 478.165" style="enable-background:new 0 0 478.165 478.165;" xml:space="preserve">
<g>
	<path id="Yahoo_x21__2_" d="M385.201,166.478c-11.695,3.088-118.924,86.209-125.937,106.631
		c-1.474,7.013,0.339,75.191,1.813,85.452c7.033,1.494,57.918,0.12,67.302,1.833l-1.016,21.059
		c-9.264-0.837-73.896-0.498-110.835-0.498c-18.728,0-79.017,1.972-97.605,1.454l3.507-20.083
		c10.221-0.837,52.259,1.873,61.424-7.949c4.642-4.981,3.208-69.892,1.614-80.73c-3.805-11.675-97.705-129.284-122.151-148.51H0
		V95.669h213.142v1.933c0.199,0,0.498,0.02,0.697,0.159l-0.697,4.941v22.434h-64.353c28.67,41.839,69.732,92.425,87.265,116.732
		l85.791-77.781H270.84l-7.093-29.447H450.63l-1.435,2.092c0.1,0,0.478,0,0.578,0l-13.209,19.366c-0.299,0-0.418,0-0.438,0.02
		l-5.459,7.949h-34.527C391.736,165.083,387.692,165.999,385.201,166.478z M446.048,351.607l-16.417-0.877l-18.33-2.291l0.1,31.659
		l14.524,1.295l15.74,1.076L446.048,351.607z M478.165,200.786c-5.599-0.239-56.125-5.061-62.679-6.316l0.598,133.288l28.789,2.331
		L478.165,200.786z"/>
</g>

</svg>
